<?xml version="1.0" encoding="UTF-8" standalone="no"?>
<!DOCTYPE svg PUBLIC "-//W3C//DTD SVG 1.1//EN"
 "http://www.w3.org/Graphics/SVG/1.1/DTD/svg11.dtd">
<!-- Generated by graphviz version 2.38.0 (20140413.2041)
 -->
<!-- Title: Semaphore.cpp Pages: 1 -->
<svg width="230pt" height="140pt"
 viewBox="0.00 0.00 230.00 140.00" xmlns="http://www.w3.org/2000/svg" xmlns:xlink="http://www.w3.org/1999/xlink">
<g id="graph0" class="graph" transform="scale(1 1) rotate(0) translate(4 136)">
<title>Semaphore.cpp</title>
<polygon fill="white" stroke="none" points="-4,4 -4,-136 226,-136 226,4 -4,4"/>
<!-- Node0 -->
<g id="node1" class="node"><title>Node0</title>
<polygon fill="#bfbfbf" stroke="black" points="67.5,-112.5 67.5,-131.5 152.5,-131.5 152.5,-112.5 67.5,-112.5"/>
<text text-anchor="middle" x="110" y="-119.5" font-family="Helvetica,sans-Serif" font-size="10.00">Semaphore.cpp</text>
</g>
<!-- Node1 -->
<g id="node2" class="node"><title>Node1</title>
<g id="a_node2"><a xlink:href="_semaphore_8h.html" target="_top" xlink:title="Semaphore.h">
<polygon fill="white" stroke="black" points="73,-56.5 73,-75.5 147,-75.5 147,-56.5 73,-56.5"/>
<text text-anchor="middle" x="110" y="-63.5" font-family="Helvetica,sans-Serif" font-size="10.00">Semaphore.h</text>
</a>
</g>
</g>
<!-- Node0&#45;&gt;Node1 -->
<g id="edge1" class="edge"><title>Node0&#45;&gt;Node1</title>
<path fill="none" stroke="midnightblue" d="M110,-112.083C110,-105.006 110,-94.8611 110,-85.9865"/>
<polygon fill="midnightblue" stroke="midnightblue" points="113.5,-85.751 110,-75.7511 106.5,-85.7511 113.5,-85.751"/>
</g>
<!-- Node2 -->
<g id="node3" class="node"><title>Node2</title>
<polygon fill="white" stroke="#bfbfbf" points="0,-0.5 0,-19.5 44,-19.5 44,-0.5 0,-0.5"/>
<text text-anchor="middle" x="22" y="-7.5" font-family="Helvetica,sans-Serif" font-size="10.00">mutex</text>
</g>
<!-- Node1&#45;&gt;Node2 -->
<g id="edge2" class="edge"><title>Node1&#45;&gt;Node2</title>
<path fill="none" stroke="midnightblue" d="M95.8613,-56.324C82.1337,-47.9002 61.0637,-34.9709 44.9357,-25.0741"/>
<polygon fill="midnightblue" stroke="midnightblue" points="46.4574,-21.9016 36.1036,-19.6545 42.7963,-27.8678 46.4574,-21.9016"/>
</g>
<!-- Node3 -->
<g id="node4" class="node"><title>Node3</title>
<polygon fill="white" stroke="#bfbfbf" points="62.5,-0.5 62.5,-19.5 157.5,-19.5 157.5,-0.5 62.5,-0.5"/>
<text text-anchor="middle" x="110" y="-7.5" font-family="Helvetica,sans-Serif" font-size="10.00">condition_variable</text>
</g>
<!-- Node1&#45;&gt;Node3 -->
<g id="edge3" class="edge"><title>Node1&#45;&gt;Node3</title>
<path fill="none" stroke="midnightblue" d="M110,-56.083C110,-49.0059 110,-38.8611 110,-29.9865"/>
<polygon fill="midnightblue" stroke="midnightblue" points="113.5,-29.751 110,-19.7511 106.5,-29.7511 113.5,-29.751"/>
</g>
<!-- Node4 -->
<g id="node5" class="node"><title>Node4</title>
<polygon fill="white" stroke="#bfbfbf" points="176,-0.5 176,-19.5 222,-19.5 222,-0.5 176,-0.5"/>
<text text-anchor="middle" x="199" y="-7.5" font-family="Helvetica,sans-Serif" font-size="10.00">chrono</text>
</g>
<!-- Node1&#45;&gt;Node4 -->
<g id="edge4" class="edge"><title>Node1&#45;&gt;Node4</title>
<path fill="none" stroke="midnightblue" d="M124.299,-56.324C138.183,-47.9002 159.492,-34.9709 175.804,-25.0741"/>
<polygon fill="midnightblue" stroke="midnightblue" points="178.002,-27.8341 184.736,-19.6545 174.371,-21.8495 178.002,-27.8341"/>
</g>
</g>
</svg>
